<svg width="656" height="285" viewBox="0 0 656 285" fill="none" xmlns="http://www.w3.org/2000/svg">
<path d="M167.259 150.402C167.259 139.335 169.526 129.535 174.059 121.002C178.726 112.469 184.993 105.869 192.859 101.202C200.859 96.4019 209.726 94.002 219.459 94.002C226.659 94.002 233.726 95.602 240.659 98.802C247.726 101.869 253.326 106.002 257.459 111.202V58.002H280.459V206.002H257.459V189.402C253.726 194.735 248.526 199.135 241.859 202.602C235.326 206.069 227.793 207.802 219.259 207.802C209.659 207.802 200.859 205.402 192.859 200.602C184.993 195.669 178.726 188.869 174.059 180.202C169.526 171.402 167.259 161.469 167.259 150.402ZM257.459 150.802C257.459 143.202 255.859 136.602 252.659 131.002C249.593 125.402 245.526 121.135 240.459 118.202C235.393 115.269 229.926 113.802 224.059 113.802C218.193 113.802 212.726 115.269 207.659 118.202C202.593 121.002 198.459 125.202 195.259 130.802C192.193 136.269 190.659 142.802 190.659 150.402C190.659 158.002 192.193 164.669 195.259 170.402C198.459 176.135 202.593 180.535 207.659 183.602C212.859 186.535 218.326 188.002 224.059 188.002C229.926 188.002 235.393 186.535 240.459 183.602C245.526 180.669 249.593 176.402 252.659 170.802C255.859 165.069 257.459 158.402 257.459 150.802ZM325.206 111.802C328.54 106.202 332.94 101.869 338.406 98.802C344.006 95.602 350.606 94.002 358.206 94.002V117.602H352.406C343.473 117.602 336.673 119.869 332.006 124.402C327.473 128.935 325.206 136.802 325.206 148.002V206.002H302.406V95.802H325.206V111.802ZM382.764 81.202C378.631 81.202 375.164 79.8019 372.364 77.0019C369.564 74.2019 368.164 70.7353 368.164 66.6019C368.164 62.4686 369.564 59.0019 372.364 56.202C375.164 53.4019 378.631 52.0019 382.764 52.0019C386.764 52.0019 390.164 53.4019 392.964 56.202C395.764 59.0019 397.164 62.4686 397.164 66.6019C397.164 70.7353 395.764 74.2019 392.964 77.0019C390.164 79.8019 386.764 81.202 382.764 81.202ZM393.964 95.802V206.002H371.164V95.802H393.964ZM458.498 185.602L489.698 95.802H513.898L471.898 206.002H444.698L402.898 95.802H427.298L458.498 185.602ZM624.133 148.202C624.133 152.335 623.866 156.069 623.333 159.402H539.133C539.799 168.202 543.066 175.269 548.933 180.602C554.799 185.935 561.999 188.602 570.533 188.602C582.799 188.602 591.466 183.469 596.533 173.202H621.133C617.799 183.335 611.733 191.669 602.933 198.202C594.266 204.602 583.466 207.802 570.533 207.802C559.999 207.802 550.533 205.469 542.133 200.802C533.866 196.002 527.333 189.335 522.533 180.802C517.866 172.135 515.533 162.135 515.533 150.802C515.533 139.469 517.799 129.535 522.333 121.002C526.999 112.335 533.466 105.669 541.733 101.002C550.133 96.3353 559.733 94.002 570.533 94.002C580.933 94.002 590.199 96.2686 598.333 100.802C606.466 105.335 612.799 111.735 617.333 120.002C621.866 128.135 624.133 137.535 624.133 148.202ZM600.333 141.002C600.199 132.602 597.199 125.869 591.333 120.802C585.466 115.735 578.199 113.202 569.533 113.202C561.666 113.202 554.933 115.735 549.333 120.802C543.733 125.735 540.399 132.469 539.333 141.002H600.333Z" fill="#005124"/>
<path d="M149.856 133.869C151.422 137.695 152.589 141.251 153.358 144.538L75.4329 176.432C79.3833 184.324 85.0833 189.626 92.533 192.34C99.9828 195.054 107.656 194.794 115.554 191.562C126.906 186.916 132.983 178.882 133.783 167.461L156.55 158.143C157.303 168.784 154.845 178.794 149.176 188.174C143.579 197.38 134.796 204.432 122.827 209.331C113.078 213.321 103.433 214.748 93.8914 213.611C84.4225 212.3 75.8507 208.605 68.1761 202.525C60.5743 196.272 54.6269 187.901 50.3339 177.412C46.0409 166.924 44.376 156.872 45.3392 147.257C46.3752 137.469 49.8347 128.849 55.7177 121.399C61.724 113.898 69.7248 108.102 79.72 104.012C89.345 100.072 98.7798 98.6597 108.024 99.7743C117.269 100.889 125.554 104.413 132.881 110.347C140.158 116.157 145.816 123.998 149.856 133.869ZM125.103 136.221C121.797 128.498 116.47 123.402 109.122 120.936C101.773 118.469 94.0882 118.877 86.0673 122.16C78.7869 125.139 73.5149 130.034 70.2514 136.845C66.9374 143.532 66.403 151.026 68.6482 159.327L125.103 136.221Z" fill="#005124"/>
</svg>
