<svg xmlns="http://www.w3.org/2000/svg" viewBox="0 0 1662.68 2355.95"><g id="Layer_2" data-name="Layer 2"><g id="Layer_1-2" data-name="Layer 1"><path fill="currentColor" d="M1661.52,1432.11a92.31,92.31,0,0,0-1.39-15.51,161,161,0,0,1-2.54-22.71c-.54-10.39-1.21-20.74-3.79-30.9a46.82,46.82,0,0,1-1.16-10.31c-.29-13.19-5.82-25.63-5.51-38.89a2,2,0,0,0-.21-1c-5-9.35-1.79-20.64-7.07-29.92a56.18,56.18,0,0,0-4.28-20.11c-.77-1.85-.66-4.09-.82-6.16a16.29,16.29,0,0,0-1.72-7c-1.93-3.42-2.36-7.19-2.89-11-.33-2.39-.54-5-1.63-7-3.75-7.12-3-15.59-7.12-22.55.38-8.14-5.69-14.72-5.52-22.8a29.78,29.78,0,0,1-4.34-13.56,4.74,4.74,0,0,0-.77-1.9c-3.9-6.17-4.81-13.46-7.25-20.16-2.21-6.09-5.9-11.72-6.53-18.37-3.49-3.44-1.94-8.91-4.65-12.37a12,12,0,0,1-2.94-7.47c-.06-3.15-3.27-4.19-3.81-7.07-1.92-10.17-7.76-18.83-11.4-28.37-3.39-8.86-7.79-17.33-11.87-25.91-3.36-7.06-6.54-14.23-10.43-21-7.05-12.27-13.57-24.85-20.3-37.26-6.47-11.92-15.17-22.48-20.37-35.08-9.59-12.2-17.2-25.77-26.33-38.28-5.77-7.9-11.76-15.64-17.72-23.39-2.61-3.4-6.49-6.52-8.38-7.08-8.21-2.41-18.42,2.87-19.36,11.75a55.1,55.1,0,0,0-.24,10.35c1.48,17.31,1.39,34.65.89,52-.11,3.79,0,7.83-1.2,11.32-3.55,10.13-2,21.36-7,31.1.2,7.1-5.82,12.49-5.4,19.65-4.8,7.11-6.83,15.61-11.38,22.83s-9,14.86-13.94,22.08a140,140,0,0,1-16.5,20.44c-6.31,6.3-12,13.31-19.26,18.61-7.91,5.78-15.87,11.51-24,16.94-10.42,7-22.49,12-33.75,16.1-5.85,2.12-12,3.14-17.67,5.29-6.37,2.42-12.66,3-19.18,3.55-2.07.16-4.34.09-6.12.94-5.24,2.49-10.75,2.41-16.28,2.43-11,.05-21.9.19-32.93-2.47-9.25-2.24-19.13-1.91-28.25-5.53-2.2-.87-5-.37-7.08-1.37-12.15-5.74-25.07-9.83-36.4-17.39-6.23-4.15-12.46-8.26-18.48-12.73-14.1-10.46-26-23.18-37.12-36.57a231.61,231.61,0,0,1-26.86-40.32c-3.85-7.54-8.37-14.78-9.41-23.44a3.67,3.67,0,0,0-.85-1.84c-2.46-2.82-2.63-6.29-3-9.74-.24-2.06-.27-4.27-1.09-6.1-2.74-6.19-2.92-12.74-3.36-19.29-1.36-20.81-.59-41.61.53-62.4.2-3.79.37-7.73,1.52-11.3,1.85-5.72,2.19-11.53,2.55-17.41.25-4.14-.13-8.51,1.73-12.27,2.25-4.56,2.28-9.36,2.74-14.16.32-3.43-.28-7.12,1.46-10.2,2.32-4.12,2.39-8.56,2.84-13,.27-2.75-.19-5.9,1-8.19,3.18-6.13,3-12.71,3.79-19.2a20.18,20.18,0,0,1,1.19-5c1.71-4.23,2.27-8.66,2.83-13.13,1.62-13,5.43-25.73,6.15-38.91a7.52,7.52,0,0,1,.54-2c2-5.63,2.36-11.51,2.68-17.41.33-6.23.09-12.62,1.47-18.64,2.27-9.92,2.69-19.89,2.67-30q0-20.28-.3-40.58a41,41,0,0,0-.69-9.3c-2.22-8.85-2.28-17.85-2.73-26.85a259,259,0,0,0-3.37-33c-2.31-12.89-4.07-25.94-6-38.92-1.5-10.27-5.39-20-5.72-30.47a3.28,3.28,0,0,0-.65-1.94c-2.74-3.15-2.36-7.1-2.9-10.82-.35-2.4.09-5.27-1.09-7.13-4.53-7.17-2.81-16.19-7.34-23.27-.49-8-4.76-15-6.53-22.7a70.67,70.67,0,0,0-4.14-12.63c-1.84-4.1-3.82-8-4.16-12.52a7.36,7.36,0,0,0-1.19-2.83c-3.09-5.25-4.24-11.28-6.87-16.74-2.35-4.9-3.48-10.37-5.72-15.34-5.56-12.36-11-24.84-17.47-36.7-2.42-4.4-4.1-9.15-6.77-13.51a181.35,181.35,0,0,1-10.28-18.68c-4.53-9.85-10.5-18.81-16-28-6.21-10.38-13.49-20.21-19.93-30.42-10.44-16.54-22.21-32.07-34.24-47.3-15-19-30.48-37.7-47.62-55Q847.81,129.83,828,110c-9.75-9.78-20.77-18.11-30.71-27.61s-21.51-17-31.49-26.48c-5.6-5.3-12.29-9.43-18.45-14.14S734.92,33,728.93,28.2c-12.32-9.89-26.63-17-39.11-26.76A6.9,6.9,0,0,0,687,.34c-9.71-1.91-18.38,4.36-18.69,14-.28,8.31.06,16.75,2.52,24.72a65.9,65.9,0,0,1,2.59,16.3c.35,6.56.08,13.24,2.07,19.58a49.47,49.47,0,0,1,1.87,13.32c1,29.13.88,58.26.07,87.39-.08,2.77.21,5.75-.7,8.26-2.67,7.33-2.83,14.94-3.17,22.53-.58,12.87-5.2,25-6.32,37.81a8.3,8.3,0,0,1-1,2.94,22.14,22.14,0,0,0-2.12,9c-.48,8.34-5.64,15.58-5.51,24.05a1.47,1.47,0,0,1-.5.88c-2.63,2.73-2.67,6.27-3.09,9.71-.26,2-.37,4.08-2.06,5.7s-1.83,3.65-2,5.76c-.51,7-4.13,13.05-6.54,19.36-3.5,9.16-7.14,18.33-11.28,27.29-4.25,9.18-8.28,18.48-12.51,27.68-2,4.35-4.42,8.52-6.47,12.82-4.76,10-10.46,19.53-16.07,29.08-6.65,11.33-13.31,22.68-20.53,33.65-4.79,7.27-9.41,14.66-14.31,21.84-6.27,9.19-13.13,18-19.7,27-8.91,12.16-18.37,23.9-27.53,35.86-12.33,16.12-25.19,31.86-38.62,47-14.25,16-27.47,33-42.76,48.11-11.53,11.43-21.66,24.29-32.54,36.39-10.51,11.68-21.22,23.2-31.8,34.83-17.91,19.68-35.9,39.29-53.65,59.12q-18.23,20.34-35.88,41.19c-13.52,15.9-27,31.82-40.07,48.11-12.59,15.72-25.06,31.58-36.69,48-9.74,13.77-20.54,26.8-29.08,41.46-4.87,8.37-11,16-16.29,24.15-7.17,11-14.16,22.11-21.11,33.25-3.61,5.78-7.14,11.63-10.42,17.6-3.57,6.47-6.33,13.42-10.31,19.62-6.4,10-11,20.85-16.78,31.11A262.36,262.36,0,0,0,88,1092c-5.38,12.49-12.36,24.38-15.73,37.7-.64,2.49-3.37,3.3-3.59,6-.18,2.33,0,5.07-1.92,6.83-2.3,2.11-2.82,4.84-2.84,7.55,0,3.47-3.47,4.88-4,8.18-1.18,7.46-5,14.14-7.38,21.23-2.32,6.8-4.8,13.56-6.62,20.49-1.73,6.6-5.57,12.63-5.36,19.76a2.85,2.85,0,0,1-.84,1.85c-2.52,2.39-2.38,5.6-2.84,8.64-.25,1.71-.21,3.64-1,5.06-4.53,8-3.62,17.42-7.36,25.62-1.39,3-.83,7-2.09,10.1-2.09,5.23-2.48,10.74-3.75,16.07-2.09,8.75-4.43,17.4-4.86,26.44a5.37,5.37,0,0,1-.84,3c-2.83,3.6-2.18,7.89-2.63,12s.08,8.67-1.5,12.3c-2.33,5.32-2.38,10.72-2.88,16.18-.4,4.49.3,9.33-1.16,13.42-3,8.4-2.71,17-3.41,25.6-.57,6.91-.78,13.87-1.89,20.69a156.21,156.21,0,0,0-2.1,19.62c-1.59,44-2,88.08-.12,132.12A161.55,161.55,0,0,0,3,1588a220.45,220.45,0,0,1,2.58,23.75c.27,4.82.3,9.83,1.67,14.38a69.54,69.54,0,0,1,2.45,15.29c.34,4.48,0,9.36,1.71,13.31,2.16,5,2.29,10,2.86,15.12.44,4,.1,8.19,2.62,12,1.23,1.86,1.23,4.65,1.45,7,.91,9.64,5.24,18.56,5.82,28.27.08,1.31,1,2.55,1.43,3.85.75,2.28,1.86,4.56,2.07,6.9.7,8,5.47,14.91,5.73,23a3.26,3.26,0,0,0,.77,1.89c2.51,2.83,2.8,6.39,2.71,9.8-.11,4.19,4.13,6.39,4.15,10.4,0,7,5.95,12.42,5.39,19.61A335.35,335.35,0,0,1,60.31,1829c3.58,2.89,2.63,7.74,4.65,11.09,4.61,7.6,6.85,16.23,11.11,24a98.13,98.13,0,0,1,5.65,13.1c1.67,4.53,5.45,8,6.07,12.94,4.63,2.63,2.26,9.37,7,11.93,4.86,13.9,13.6,25.81,20.48,38.65,6,11.13,13.36,21.64,20.11,32.41,8.07,12.88,17.36,24.87,25.44,37.71,6.23,9.9,14.39,18.43,21.11,28,6.88,9.84,15.39,18.47,23.06,27.74a671.86,671.86,0,0,0,54.64,58.15c16.11,15.32,32.78,30.07,50.16,44.05,13.6,10.94,27.63,21.25,41.44,31.88,9.64,7.4,19.71,14.14,29.75,20.87,7,4.71,13.75,10.2,21.45,13.76,4,1.86,6.85,5.85,11.59,6.22,2.71,4.29,8.9,3.27,11.59,7.59,11.56,6.27,22.8,13.26,34.77,18.59,11.76,5.23,22.68,12.32,35.13,16,7.56,6,17.5,7,25.51,12.09,10.93,1.74,19.83,9.36,30.9,10.7,2.83,3.83,7.23,3.5,11.23,4.25a4.66,4.66,0,0,1,2,.62c5.63,4.38,13.28,3.55,19.07,7.48,8.38.46,15.6,5.59,24,5.93a7.14,7.14,0,0,1,3.81,1.46,12.6,12.6,0,0,0,6.8,2.2c8.52.83,16.21,5.66,25,5.16a2.8,2.8,0,0,1,2,.57c3.57,3.49,8.28,3,12.63,3.84,10.84,2.14,21.49,5.35,32.65,5.74a4.43,4.43,0,0,1,2,.44c5.7,3.24,12,2.66,18.22,3.15,4.47.35,9.13-.19,13.36,1.57,4.94,2,10.07,2.29,15.26,2.5,6.93.27,13.86.43,20.79.78,2.75.14,5.65.19,8.18,1.11,4.34,1.6,8.78,1.9,13.27,2,31.9.79,63.8,1,95.7-.13,2.75-.1,5.73.07,8.2-.9,4.68-1.83,9.48-1.88,14.3-2.13,7.27-.39,14.55-.65,21.82-1,2.42-.12,5.12.24,7.2-.7,6.89-3.09,14.19-2.86,21.41-3.39,3.46-.25,7-.25,10.21-1.67a34.17,34.17,0,0,1,12.17-2.41c11.14-.58,21.38-5.86,32.57-6a3.12,3.12,0,0,0,1.94-.67c3.65-3.38,8.3-3,12.72-3.53,1.71-.2,3.72-.1,5-1a20.09,20.09,0,0,1,11.84-3.22c4.77.08,8.1-3.9,12.68-4.08,7.75-.32,14.33-5,21.92-5.87,4.85-3.82,11.32-3,16.47-5.62,2.85-1.48,5.63-3,8.73-2.74,4.07.39,5.13-4.13,8.89-4.48,6.52-.62,12.34-4.08,18.43-6.26,10.83-3.87,20.86-9.91,32.11-12.91,3-3.13,7.75-2.88,11-5.31,7.38-5.58,16.23-8.14,24.21-12.46,7-3.82,14.72-6.55,21.61-10.63q15.57-9.19,31.21-18.26c9.21-5.36,18.14-11.42,27.1-17.31,18.86-12.4,37.12-25.64,55.06-39.3,13-9.89,25.39-20.57,37.69-31.32,16.94-14.8,33.15-30.4,49-46.4,17.52-17.69,33.58-36.63,49.62-55.6,11.1-13.12,21.43-26.86,31.59-40.73,5.75-7.85,12.14-15.35,16.89-23.77,3.51-6.22,7.73-11.92,11.59-17.82s7.85-11.86,11.3-17.94c5-8.79,11.17-17,15-26.43a35.66,35.66,0,0,1,5.63-9.67c2.31-2.73,2.33-6.77,5-8.81,3.38-2.55,1.16-7.69,5.14-9.64,3.83-7.91,7.7-15.79,11.47-23.72,1.89-4,2.78-8.81,5.61-11.9,3.43-3.76,2-9.64,6.55-12.44-.5-5.57,4.61-9,5.32-14.26.67-5.06,3.87-9.37,5.74-14.1,4.53-11.4,9.7-22.53,12.8-34.46.25-1,.39-2.3,1.07-2.8,3.35-2.46,2.62-6.22,3.23-9.5.71-3.76,4.36-6.25,4.11-10.42-.16-2.8,1.24-5.2,2.28-7.79,2.67-6.67,5.24-13.55,6.5-20.58,1.4-7.84,5.85-14.83,5.89-23,3.59-4.69,3.34-10.34,4-15.78.16-1.37.1-3.14.91-4,3.24-3.42,2.56-7.74,3.17-11.76.35-2.4-.24-5.31.93-7.14,3.42-5.35,2.85-11.3,3.62-17.07.32-2.39.35-5,1.32-7.08,2.11-4.56,2.38-9.36,2.84-14.18.43-4.48.49-9,1.45-13.42,4.55-20.72,4.41-42,7.61-62.85a17.82,17.82,0,0,0,.1-2.07c.34-20.46.69-40.93,1-60.89C1662.3,1473,1662,1452.57,1661.52,1432.11Zm-410.47,331.42c-.09,11.8-2.2,23.29-3.71,34.88-.08.61-.72,1.14-1.11,1.7-.07,1.33-.15,2.65-.22,4,1.09,6.8,1.73,13.5-3.73,19-.87,5.37-.1,11-3.6,15.94-1.06,1.49-.67,4-.91,6.09-.48,4.09-.34,8.31-3.11,11.84a6.06,6.06,0,0,0-.94,3c-1.22,10.37-6,19.64-8.89,29.47-1.73,5.91-4.95,11.26-5.88,17.42-.6,4-4.88,6.64-4.48,11.13-7.11,13.48-13.31,27.39-20.82,40.71a431.81,431.81,0,0,1-28.87,45c-7.72,10.45-16,20.47-24.57,30.3-10.56,12.1-22.36,22.85-33.62,34.16-5.5,5.51-11.74,10.31-17.89,15.13-6.82,5.35-13.25,11.13-20.65,15.85-7.1,4.52-14.31,9-21.08,13.93-8.48,6.18-17.91,10.56-26.7,16.1-3.64,2.29-7.88,3.7-11.8,5.61-6,2.93-12.05,5.9-18.15,8.53-5.25,2.26-10.63,4.56-16,6.62-6.3,2.4-13.13,3.3-19.06,6.79-1.69,1-4,1-6,1.38-3,.55-6.27.38-8.77,2.73a3.13,3.13,0,0,1-1.81.88c-7.34.34-14,3.61-21.11,4.86s-14.28,1.73-21.08,4.86c-3.25,1.5-7.51.81-11.31,1.09-7.56.57-15.21.14-22.57,2.88-2.49.93-5.48.73-8.24.74q-22.89.12-45.77,0a37.54,37.54,0,0,1-12.27-1.74c-5.65-1.92-11.65-1.35-17.51-1.82-7.19-.58-14.54.06-21.17-3.93-1.66-1-4-1-6.07-1.16-5.86-.58-11.7-1-17.07-3.86-1.44-.78-3.37-.7-5.08-.92-3.76-.47-7.65-.44-10.8-3.1a3,3,0,0,0-1.87-.8c-7.51.59-13.61-4.08-20.56-5.7a71.44,71.44,0,0,1-16-6.13c-5.74-2.94-11.88-5.08-17.77-7.72-7-3.17-14.11-6.34-21-9.82a331.6,331.6,0,0,1-38-22.88c-18.8-12.88-37.26-26.43-53.06-43.17-5.64-6-12.34-11-17.85-17.06C520.14,2032.71,507.86,2019,497,2004a433.47,433.47,0,0,1-29.46-45.91c-5.81-10.59-11.59-21.39-16.13-32.76a146.85,146.85,0,0,0-6.95-15.77,51.34,51.34,0,0,1-5.27-14.17c-1.48-7.45-5.41-14-6.89-21.44-.56-2.82-2.05-5.74-2.47-8.8a37.2,37.2,0,0,0-2.58-8.94,33.33,33.33,0,0,1-2.2-7.94c-.71-5.14-1.22-10.23-3.47-15.06-1-2.1-.87-4.74-1.12-7.14-.66-6.17-.54-12.44-3.39-18.26-.85-1.76-.66-4.08-.76-6.15-.8-17-2-33.93-2.19-50.91-.19-13.49.79-27,1.24-40.52.3-9,.53-18,.85-27,.21-5.85.44-11.57,2.52-17.32,1.59-4.42,1.29-9.56,1.56-14.4.35-6.57.4-13.14,3.11-19.34a15,15,0,0,0,.93-5.09,72.56,72.56,0,0,1,4-20.29c.92-2.56,1-5.42,1.38-8.16.51-3.77.83-7.51,2.87-11,1-1.69,1.18-3.92,1.53-6,.63-3.72.37-7.66,3.16-10.76a2.81,2.81,0,0,0,.73-1.91c-1-7.94,5.07-14.16,5.31-21.79,4.09-6.06,3.2-14,7.51-20,.47-6.72,4.43-12.27,6.76-18.28,3.25-8.43,6.72-16.89,10.65-25.14,3.64-7.65,7.33-15.33,10.95-23,3.46-7.35,7.69-14.34,11.53-21.51,2.19-4.09,4.35-8.18,6.36-12.35a35.19,35.19,0,0,1,2.24-4.58c7.46-11.21,14-23,21.4-34.25,6.26-9.55,12.88-18.94,19.56-28.25,8.43-11.77,17.37-23.14,26-34.76,11-14.9,23.4-28.72,35.11-43.05,10-12.25,20.94-23.76,31.57-35.5,17.85-19.72,36.5-38.69,55.22-57.59,5.7-5.76,11.71-11.22,17.31-17.08a59.05,59.05,0,0,1,12.83-9.9,9.49,9.49,0,0,1,9.88-.17c2.66,1.44,6.26,2.68,7.43,5,2.11,4.19,4.1,9,3.18,13.92-3,16.15-2,32.49-2.68,48.74-.42,10.06-.88,20.09-2.46,30a54.56,54.56,0,0,0-.65,8.27q-.12,32.25-.1,64.5a33.81,33.81,0,0,0,.36,7.27c3.1,14,2.65,28.25,3.22,42.42.27,6.91.11,13.87,2.93,20.42a7.72,7.72,0,0,1,.54,3.06c-.15,11.91,4.25,23.07,5.7,34.72a38.62,38.62,0,0,0,2,6.93,57.93,57.93,0,0,1,2,5.87c.9,4.36,1,8.8,3.74,12.77,2.51,3.58,1.39,8.44,4.4,12.45,2.64,3.54,1.28,9.46,5.17,13,1.77,8.05,6.08,15.07,9.87,22.15,3.64,6.82,6.67,14.09,12.06,20,2.17,2.39,2.33,6.48,5.42,8.57a9.53,9.53,0,0,1,2.56,1.61c5.13,6.36,10.18,12.78,15.22,19.2,1.32,1.68,2.15,3.53,1.36,5.74,5.24,5.08,10.56,10.1,15.7,15.28a241.42,241.42,0,0,0,20.74,18.92c7,5.64,15.06,9.9,22,15.64,5.08.49,8.21,4.62,12.15,7a103.91,103.91,0,0,0,12.61,6.41c4.89,2.13,9.67,4.76,14.9,6.32,6.86,2,13.57,4.67,20.23,7.34a38.82,38.82,0,0,0,9,2.15c3,.43,5.95.36,8.54,2.89,1.45,1.4,4.54,1.21,6.92,1.53,5.78.78,11.62.64,17.23,3.1,3,1.32,6.8,1,10.26,1.19q28.05,1.17,56.11,0c4.46-.18,8.88-.37,13.12-2.55,2.31-1.18,5.39-.93,8.14-1.22,5.4-.56,11.11.19,15.63-4a3.58,3.58,0,0,1,2-.47c12.49-1.22,23.25-8.1,35.31-10.72,12.69-7,26.25-12.26,38.39-20.49,10-6.78,20.57-12.89,29.51-21,5.75-5.21,11.36-10.4,17.93-14.55,6.34-4,12.49-3.79,17.49,1.43,2.72,2.83,5.81,5.73,6,10.16.11,2.11,1.16,3.87,1.86,5.79,4.09,11.25,8,22.58,11.55,34,1.21,3.9,1,8.12,3.64,11.73,1.08,1.47.74,4,1,6.06.5,4.43.55,8.81,3.16,12.91,1.35,2.11,1,5.36,1.26,8.11.5,5.82.36,11.64,3,17.2,1.27,2.66.91,6.1,1.29,9.19.38.57,1.07,1.11,1.11,1.7.7,12,3.78,23.76,3.71,35.92C1251,1745,1251.12,1754.25,1251.05,1763.53Z"/></g></g></svg>