<svg xmlns="http://www.w3.org/2000/svg" viewBox="0 0 1258.31 1109.32"><g id="Layer_2" data-name="Layer 2"><g id="Layer_1-2" data-name="Layer 1"><path fill="currentColor" d="M629,798.66h476.61c2.77,0,5.53,0,8.29.18a2,2,0,0,1,1.95,1.92,31.29,31.29,0,0,1,.19,3.75c0,25.14.11,50.28-.3,75.41a185.72,185.72,0,0,1-2.65,30c-1.73,9.56-3.66,19.12-6.25,28.57A246.27,246.27,0,0,1,1082,997.68a233.87,233.87,0,0,1-38.43,49.36,206.36,206.36,0,0,1-33.49,27.24c-13.62,8.68-27.82,16.32-43.15,21.86a263.19,263.19,0,0,1-30.76,9.11c-2.68.61-5.43.9-8.17,1.26-2,.27-4.09.1-6,.67-6.86,2.06-13.9,1.9-20.93,2-5.53.1-11.06.11-16.59.11H373.15c-6.78,0-13.57,0-20.36-.2-5.26-.11-10.52-.16-15.66-1.8-2.1-.68-4.46-.57-6.71-.76a91.78,91.78,0,0,1-18.4-3.77c-5-1.5-10.17-2.56-15.07-4.36-6.75-2.48-13.39-5.28-19.92-8.27a213.61,213.61,0,0,1-52.84-34.27,236.26,236.26,0,0,1-67.41-100.7c-2.9-8.79-5.58-17.57-7.69-26.59a245.38,245.38,0,0,1-6.71-55.14c-.08-22.62,0-45.24,0-67.87,0-1.5,0-3,.08-4.52a2.26,2.26,0,0,1,2.39-2.3c1-.06,2-.1,3-.1,2.52,0,5,0,7.54,0Z"/><path fill="currentColor" d="M1258,554.06c-4.06-11.51-8-23.09-12-34.59-4.58-12.91-9.41-25.72-14-38.65s-8.77-26-13.28-39c-4.59-13.17-9.42-26.25-14-39.42-4.53-12.93-8.83-25.94-13.36-38.87-4.46-12.69-9.16-25.29-13.61-38q-8.65-24.69-17.06-49.49c-1.08-3.21-3-4.77-6.26-5.6-7.73-1.94-15.64-2.9-23.34-5.12-7.18-2.07-14.62-3.47-22-5-9.51-2-18.59-5.5-28.13-7.26-8.86-1.64-17.23-5-25.93-7.29-11.78-3-23.27-7.26-34.81-11.22-8.46-2.9-17-5.5-25.32-9-8-3.35-16.68-5.27-24.65-8.75-15.48-6.75-31.36-12.52-46.61-19.83-9.58-4.61-19.43-8.67-29-13.28-11-5.27-21.85-10.78-32.79-16.13-15.38-7.51-30.23-16-45-24.51-17.82-10.25-35.23-21.25-52.28-32.78-12.31-8.33-24.36-17-36.39-25.73-14.5-10.5-28.49-21.68-42-33.3C668.77,36.48,652.47,20.45,635.64,5c-7.45-6.82-5.95-6.62-12.91,0C608.85,18.25,594.92,31.39,580.48,44c-12.17,10.6-24.39,21.18-37.2,31-15,11.48-30.15,22.85-46,33.16-6.45,4.19-13.09,8.12-19.39,12.53-13.43,9.4-27.79,17.31-41.81,25.73-12.14,7.28-24.83,13.66-37.4,20.2q-19.14,10-38.55,19.42c-6.93,3.37-14.07,6.32-21.15,9.37-11.83,5.09-23.67,10.17-35.57,15.13-7.34,3.07-14.79,5.88-22.18,8.83-7.61,3.05-15.28,6.05-23,8.6-8.77,2.9-17.47,6.1-26.34,8.76-7.84,2.35-15.6,5.15-23.44,7.6-6.67,2.08-13.63,3.29-20.12,5.8-7.5,2.89-15.71,3.1-22.95,6.72-9.7,1.3-18.81,5.07-28.42,6.74-3.46.61-7.14.62-10.33,1.89-6.83,2.71-14.06,3.39-21.12,4.82-4.21.85-7,2.3-8,6.6A40.62,40.62,0,0,1,95.8,281q-4.72,13.35-9.39,26.74-5.19,14.83-10.34,29.67-4.65,13.39-9.3,26.78Q60,383.59,53.33,403c-3.42,9.9-6.74,19.83-10.2,29.71-3,8.69-6.28,17.31-9.31,26-3.53,10.14-6.88,20.35-10.4,30.49-3.11,8.94-6.33,17.84-9.51,26.75-2,5.62-4.05,11.23-6,16.86Q4,543.75.18,554.67a3.27,3.27,0,0,0,.38,2.87,25.86,25.86,0,0,0,3.22,4.12c7.36,8.08,14.61,16.26,21.85,24.46q31.89,36.09,63.75,72.23c16.65,18.84,33.37,37.63,50,56.5,2.47,2.8,5.08,4.67,9,4.33,2.74-.24,5.52,0,8.29,0h945c2.77,0,5.54-.16,8.3,0,3.88.26,6.54-1.38,9-4.33,5.22-6.35,10.69-12.49,16.16-18.64q28.53-32.07,57.12-64.1,27.06-30.35,54.1-60.7c3.48-3.91,6.88-7.89,10.3-11.86C1258,558,1258.8,556.32,1258,554.06ZM759.11,325.61c-.12,1.76,0,3.52,0,5.28v43h0c0,11.31,0,22.62,0,33.93a218.37,218.37,0,0,1-3.72,38.14,188.34,188.34,0,0,1-5.5,22.53,185.58,185.58,0,0,1-44.67,75.06,171.67,171.67,0,0,1-33.07,26.42c-8.85,5.43-18,10.67-28.14,13.47-2.94,2.56-7.13,2-10.27,4.32a7.44,7.44,0,0,1-7.28.6c-8.84-4-18.23-6.59-26.91-11A177.89,177.89,0,0,1,563.09,553a181.2,181.2,0,0,1-34.32-40.2,193.62,193.62,0,0,1-19.16-40.34,183.81,183.81,0,0,1-6.06-23.17c-3.65-17.82-4.44-35.81-4.41-53.9,0-21.87.25-43.74-.14-65.59-.11-6.36,2.32-9.83,7.43-13.2,13.63-9,26.84-18.67,40.22-28.06l51.15-35.86,28.71-20.1c2.5-1.74,2.67-1.78,5.24,0q11.93,8.22,23.83,16.48,20.07,14,40.09,28.07t40.26,28.32c6.64,4.68,13.15,9.54,19.89,14.06C758.2,321.06,759.29,322.84,759.11,325.61Z"/><path fill="currentColor" d="M684.54,396.81a203,203,0,0,1-.84,23.55c-2.87,26.31-14,48.58-33,66.86a87.93,87.93,0,0,1-19.32,13.86c-1.81,1-3,.82-4.73-.17-20.46-11.52-34.81-28.35-44.08-49.79a96.25,96.25,0,0,1-6.48-20.65,138.4,138.4,0,0,1-2.07-21.7c-.33-13.55,0-27.11-.22-40.66-.06-4.21,1.51-6.86,5-9.19,9.47-6.34,18.7-13,28-19.57q8-5.6,15.93-11.16c1.22-.86,2.5-1.64,3.71-2.52,1.87-1.35,3.61-1.22,5.52.07,4.3,2.92,8.78,5.58,13,8.57,10.89,7.65,21.69,15.43,32.54,23.14.8.57,1.67,1.05,2.51,1.57a9,9,0,0,1,4.58,8.66C684.37,376.71,684.54,385.75,684.54,396.81Z"/></g></g></svg>