<svg xmlns="http://www.w3.org/2000/svg" viewBox="0 0 4324.21 4381.4"><defs><style>.cls-1{fill:#333;}.cls-2{fill:#333434;}.cls-3{fill:#343434;}</style></defs><g id="Layer_2" data-name="Layer 2"><g id="Layer_1-2" data-name="Layer 1"><path class="cls-1" d="M4319.13,2054.18c-1.54-17.6-1.82-35.31-3.64-52.87-4.06-39.25-8.67-78.43-13.2-117.63-.83-7.22-2.87-14.32-3.39-21.54-1.93-27-8.48-53.32-13.19-79.86-3.61-20.36-7.84-40.72-12.11-61-6.4-30.48-13.63-60.75-21.39-90.84q-17.47-67.74-39.68-134.22-26.1-78.21-57.55-154.38c-21.09-50.82-44.75-100.41-69.4-149.61-41-81.86-87.71-160.26-138.73-236.16-27.23-40.52-56.09-79.86-85.85-118.61-35.48-46.2-73.25-90.44-112.21-133.6-29.91-33.13-61-65.27-93.53-96-22.64-21.43-45.42-42.67-68.64-63.49-91.53-82-189.82-155-293.93-220.17-75.75-47.41-154.48-89.3-235.51-127.06-69.66-32.46-141.07-60.19-213.57-85.43-44.12-15.36-89.3-27.06-134-40.38-23.84-7.1-48.18-12.6-72.45-18.16-20.21-4.63-40.81-7.61-60.94-12.56-25.28-6.22-51.13-8.89-76.68-13.3-30.66-5.29-61.8-7.72-92.61-12.22-23.68-3.46-47.32-6.55-71.29-7.13-10.37-.24-20.71-1.76-31.07-2.53-17.62-1.31-35.23-3-52.87-3.62-30.13-1-60.28-1.23-90.27-1.78-30.31.57-60.45,1-90.59,1.77-13.5.36-27,1-40.45,2.47-44.4,4.91-89.25,5.22-133.32,13.48-11.19,2.1-22.77,2-34,3.74q-40,6.12-79.89,13.09c-15.34,2.67-30.55,6.09-45.84,9.05-19.33,3.74-38.94,6.38-58,11.23-42.21,10.75-84.32,22-126.13,34.17-33.81,9.85-67.28,20.93-100.61,32.3-21.56,7.36-42.41,16.77-63.92,24.3-58.89,20.63-114.78,48.13-170.9,74.93-43.06,20.55-85,43.47-126.29,67.53Q1010.67,335.15,934,388.57c-52.06,36.24-102.18,75-150.74,115.71-30.24,25.35-59.94,51.43-88.59,78.55-31.69,30-62.75,60.65-92.82,92.35C562.44,716.69,525.2,760,489,804.21c-41.52,50.64-80.07,103.53-116.51,157.91-22,32.77-43.61,65.87-63.46,99.95-47.55,81.65-91,165.45-128.48,252.31C150.88,1383,125,1452.91,102.14,1524c-15.21,47.43-28.09,95.52-40.19,143.81C54.9,1696,49,1724.46,43.3,1752.92c-4.71,23.39-8.58,46.95-12.5,70.49-4.43,26.62-9.74,53.17-12.43,80-4.25,42.36-11.52,84.45-12,127.17-.06,6.22-1.09,12.42-1.52,18.64-1.27,18.66-3,37.3-3.59,56-3.5,116.5-.31,232.72,14.49,348.49,2.63,20.6,4,41.35,8.54,61.7a51.68,51.68,0,0,1,1.18,9.27c.88,24,8,47,11.24,70.68,3,21.53,9.62,42.51,13.33,64,7.25,42,18.61,83,29.79,123.94,9,33,19.43,65.59,29.86,98.19,28.8,90.09,64.76,177.3,105.32,262.55A2124.82,2124.82,0,0,0,335,3362.2c30.42,48.4,62.38,95.76,96.5,141.58C483,3573,537.82,3639.5,597.33,3702.1q59.1,62.18,122.44,120c60.82,55.27,124.66,106.65,191,155.16,44.49,32.56,90.63,62.61,137.51,91.35,44.21,27.1,89.18,53.19,135.84,76.08,30.75,15.09,61,31.23,92.11,45.49,30.15,13.81,61.13,25.79,91.73,38.61q51.66,21.65,104.84,39.19c44.29,14.57,88.77,28.55,133.83,40.68,28,7.53,100.71,24.61,130.36,29.84,21.47,3.79,42.81,8.39,64.29,12.19,26.57,4.71,53.08,10.3,79.87,13.12,40.28,4.23,80.33,11.14,121,11.37,5.18,0,10.36.82,15.54,1.15,23.85,1.53,47.69,3.77,71.56,4.36,35.33.88,70.68.8,106,.72,39.51-.08,79-1,118.31-5.58,12.37-1.42,24.89-1.59,37.34-2.33,8.3-.49,16.76-.11,24.87-1.6,34.79-6.36,70.25-7.25,105-14.07,18.27-3.58,36.69-7.26,55.18-9.56,37.19-4.63,73.5-13.62,109.91-21.77,40.43-9.06,80.64-19.33,120.31-31.69,41.57-12.95,83.25-25.49,124.1-40.6,66.17-24.48,131.43-51.11,194.91-82.05,74.71-36.41,147.57-76.09,217.75-120.67q96.08-61,185.6-131.25c46.67-36.56,91.46-75.3,134.91-115.53a2123.7,2123.7,0,0,0,218.13-235.21c46-57.72,89.28-117.38,129.33-179.39,28.18-43.63,54.49-88.37,79.8-133.71,23.78-42.63,45.54-86.31,66.52-130.33,20.52-43.06,38.88-87.1,56.31-131.54,20.46-52.16,38.58-105.15,55-158.65,11.58-37.63,21.28-75.85,31-114,7.44-29.15,14.89-58.39,20.07-88,7.33-41.88,15.53-83.61,21.18-125.83q7.44-55.59,13.61-111.31c3.64-33,6-66.27,7.21-99.48C4324.67,2216.19,4326.25,2135.13,4319.13,2054.18ZM3294.68,3606.45a182.73,182.73,0,0,1-13.62,12.65c-43.68,35.2-89.06,68.13-135.3,99.88-1.71,1.18-3.47,2.28-5.22,3.41-81.09,52.61-164.86,100.31-253.22,139.79-59.69,26.68-120.11,51.37-182.61,70.78-36.6,11.36-73.12,22.77-110.32,32.32-34.2,8.77-68.73,15.78-103.21,22.82-24.3,5-48.74,10.63-73.76,11.81-33.38,8.71-67.93,8.69-101.87,13.35-37.11,5.11-74.66,4.27-112.05,5.19-12.46.31-24.93.05-37.4.05-67.49-.89-135.1-.12-202.17-10.19-27.69-4.15-55.87-5.51-83.34-10.7-47.89-9-96-17-143.23-29.59-23-6.15-46.09-11.91-69-18.46-21.92-6.26-43.62-13.15-65.24-20.28-43.31-14.29-86.18-29.74-128.08-47.88-49.51-21.43-98.4-44.05-146-69.45a1876.29,1876.29,0,0,1-198.45-122.81c-36.55-25.78-71.66-53.39-106.08-81.78-31.22-25.74-61.57-52.6-90.72-80.82q-45.93-44.48-89.27-91.4c-25.28-27.52-49.61-56-73.14-85a1775.81,1775.81,0,0,1-147.72-212,1813.44,1813.44,0,0,1-100.07-193.37,1898.11,1898.11,0,0,1-69.81-183c-14.69-45.44-27.23-91.4-39-137.59-6.92-27.14-13.6-54.48-17.8-82.12-7-46.13-15.1-92.09-20.68-138.5-6.84-56.87-8.72-113.91-11.45-170.95a1073.83,1073.83,0,0,1,2.89-143.26c.7-8.28,1.2-16.6,1.25-24.9.15-22.91,1.62-45.65,5.59-68.26,1.61-9.18,2-18.59,2.81-27.9.57-6.2.45-12.52,1.6-18.6,8.1-42.81,13.46-86,22-128.83a1800.8,1800.8,0,0,1,138.32-418.33c27.18-57.27,57.32-112.89,89.74-167.29,14.34-24.07,29.78-47.51,45.43-70.77q37.39-55.59,79-108.16a116.48,116.48,0,0,1,12.84-13.44c1.15-1.05,4.42-1.22,5.78-.34a73.24,73.24,0,0,1,12.16,9.5q31.95,32,63.62,64.23Q988,1258.33,1128,1400.4q156.49,158.71,313,317.44,104,105.4,208.2,210.63,128.1,129.79,256,259.74,66.77,67.7,133.64,135.29,165.32,167.55,330.59,335.13,97.44,98.74,195,197.38,133.59,135.36,267.08,270.78,125.91,127.59,251.93,255.09,98.56,99.81,197.08,199.68a176.29,176.29,0,0,1,14.25,16.39C3296.63,3600.28,3297.3,3603.85,3294.68,3606.45Zm667.17-1439.92c-.84,29.09-2,58.17-2.84,87.26-.72,23.9-1.56,47.77-5.74,71.41a144.89,144.89,0,0,0-2.15,21.7c-.38,16.7-2.93,33.08-5.73,49.49-3.85,22.51-7.69,45.05-10.68,67.68-4.62,35.07-12.79,69.43-20.59,103.81-8.24,36.38-18.37,72.33-28.93,108.16q-21.12,71.67-48.25,141.23-85.43,218.68-223.56,408.62c-15.31,21-31.48,41.31-47.46,61.77-5.85,7.49-10.87,7.47-18.09.56-5.26-5-10.37-10.22-15.48-15.4q-159.88-162-319.75-324.12-97.47-98.77-195-197.52Q2852.25,2583.6,2686.9,2416q-99.68-101-199.44-201.88-161-163.16-321.88-326.4-96.37-97.67-192.87-195.22Q1838,1556,1703.36,1419.39q-99.66-101-199.43-201.88-132.53-134.29-265-268.67-97.47-98.77-195-197.48c-6.55-6.64-12.78-13.6-19.06-20.5-2-2.18-2-6.85-.24-8.58,3.71-3.61,7.23-7.47,11.28-10.67,41.58-32.85,83.75-64.84,127.75-94.49q69.86-47.05,143.84-87.07a1770.28,1770.28,0,0,1,209-96.3A1865,1865,0,0,1,1697,375.33c23-6.22,46.14-12.06,69.32-17.67,14.1-3.41,28.37-6.21,42.67-8.7,22.49-3.92,45.06-7.35,67.6-11,6.15-1,12.35-1.74,18.46-3,16.32-3.25,32.6-6.65,49.38-6.28a14,14,0,0,0,3.1-.25c40-7.86,80.69-7.13,121.07-10.09,31.07-2.27,62.31-2.36,96.56-3.53,33.29,1.71,69.62,3.59,105.95,5.43,7.26.36,14.54.61,21.81.85,19.75.66,39.32,3,59,5.13,28.94,3.18,57.76,6.93,86.47,11.6,39.95,6.49,79.73,13.61,119.21,22.85,43.47,10.18,86.19,22.79,129,35.07,40.89,11.71,80.64,26.62,120.25,42a1721.43,1721.43,0,0,1,189.34,87.15q68.68,36.69,133.88,79.42,69.27,45.12,134.28,96c82.92,64.83,159.1,137,229.31,215.26a1861.8,1861.8,0,0,1,290.88,436.76,1569.21,1569.21,0,0,1,62.72,149.08q24.14,67.33,44.4,135.92c12,40.89,20.94,82.42,31.17,123.67,5,20.1,7.49,40.82,11.08,61.26.36,2,.2,4.2.74,6.19,7.83,29.23,9.81,59.43,13.85,89.22,5,37,7.84,74.39,10.19,111.69,2.15,34.22,2.52,68.55,3.44,102.84C3962.39,2143.66,3962.19,2155.1,3961.85,2166.53Z"/><path class="cls-1" d="M1997.8,2747q-121.62,0-243.25,0c-8.29,0-16.58-.48-24.86-.82-3.65-.15-5.7-3-6.61-5.76-1.3-3.86-1.62-8.11-1.93-12.23a365.39,365.39,0,0,0-14.51-79.46c-15.36-50.6-41.9-94.45-78.52-132.67-36.06-37.64-79.47-63.64-128.08-80.31-41.54-14.24-84.94-19.59-129-14.49-18.5,2.14-37,3.81-55.16,9.26-49.5,14.84-93.94,38-132.23,73.18-42.29,38.85-72.48,85.17-90.36,139.62-7.79,23.75-13,48-14.58,73-.45,7.25-1,14.5-1.58,21.73-.27,3.15-5.24,7.73-8.53,8.09-3.09.34-6.19.77-9.29.81-10.4.11-20.79.08-31.19.07-57.17,0-114.35-.34-171.52.06-36.69.25-66.37-14.58-91.16-40.41a99,99,0,0,1-21.19-34.12c-9.53-25.28-16.31-51.36-24.19-77.12-13.35-43.64-26.84-87.24-39.76-131-9.39-31.81-20.15-63.31-25.12-96.28-5.13-34.06-6.65-67.91,1.43-102,10.52-44.4,19.28-89.2,29.12-133.76,6.71-30.37,14.11-60.59,20.94-90.94C714,2009,720.9,1976.54,728,1944.12c3.78-17.22,7.53-34.46,11.47-51.65,10-43.47,20.22-86.87,30-130.38,6.82-30.36,12.34-61,19.69-91.27,12.14-50,31.93-96.49,65-136.61,3.25-4,7.78-7.27,7.81-13,0-1.77-1.18-4.64-2.5-5.11-2.84-1-6.11-1-9.21-1-41.58,0-83.16.07-124.74,0a168.28,168.28,0,0,0-37.1,4.18c-24.63,5.5-43.48,19.27-56.3,40.79-9.12,15.3-15.65,31.67-15.05,50,.18,5.48,2.22,10.1,6.91,13.2,2.59,1.71,5.59,2.85,8,4.74,13.06,10.1,20.1,22.66,19.83,40-.67,43.64-.2,87.3-.21,131,0,29.11-.25,58.21,0,87.31.16,17.3-8.32,29.69-21.45,39.32a30.93,30.93,0,0,1-14.35,5.33,163.37,163.37,0,0,1-28,.73c-20.8-1.36-38.78-20-40-40.89-.38-6.21-.21-12.46-.21-18.7q0-95.1,0-190.2c0-2.08.16-4.17,0-6.23-1.42-16.49,2.56-30.95,15.61-42,4.31-3.67,5.3-8.49,5.73-13.85.74-9.3,1.3-18.7,3.15-27.81,11.89-58.43,48.18-95.09,103.81-113.14,11.61-3.76,24.6-4,37-4.38,22.85-.7,45.73-.35,68.6-.36,40.54,0,81.09-.46,121.62.27a67.69,67.69,0,0,0,40.9-12.09c10.27-7,21.27-12.94,32.27-18.74a14.56,14.56,0,0,1,17.4,2.69c18.45,18.26,36.53,36.9,54.65,55.51a6.08,6.08,0,0,1-2.32,10c-2.94,1-6.13,1.34-9,2.5-62.77,25.57-106.66,70.73-134.94,131.5-9.17,19.71-15.41,40.52-19.81,62-6.66,32.5-15,64.66-22.23,97s-13.7,65-20.91,97.35c-7,31.39-14.53,62.65-21.76,94-3.26,14.15-6.37,28.34-9.54,42.51q-8.49,38-17,75.9c-1.16,5.19,3.59,11,8.48,10.17,18.39-3.19,36.77-6.5,55.14-9.8,21.43-3.85,42.86-7.69,64.26-11.65,22.44-4.15,44.92-8.12,67.25-12.79a183.35,183.35,0,0,0,46.62-16.79c51.68-26.56,103.66-52.52,155.51-78.73,5.56-2.81,11.25-5.44,16.51-8.74,5.44-3.41,9.34-8.18,9.35-15.16,0-7.27.15-14.55.15-21.82q0-127.85,0-255.68a157.93,157.93,0,0,1,1-18.59c.17-1.43,2.59-2.76,4.21-3.77a3.38,3.38,0,0,1,2.88.41,45.21,45.21,0,0,1,7.33,5.49q117.14,118.79,234.19,237.65,51.46,52.17,103.23,104c4.39,4.43,8.78,8.86,13.1,13.35,2.62,2.72,3.48,7.1,1.68,8.39-1.56,1.13-3.27,2.67-5,2.81-5.17.41-10.38.25-15.58.25-19.75,0-39.5,0-59.25,0-5.2,0-10.39,0-15.58.24-7,.28-10.92,4.39-11,12.19-.12,20.79,0,41.57.12,62.35,0,5.12,4.69,9.17,10.46,9.37,7.26.25,14.53.34,21.8.34q65.49,0,131,0c7.28,0,14.61-.27,21.8.53a26.93,26.93,0,0,1,11.26,4.52c3.42,2.24,6.12,5.59,9,8.55q151.08,153.2,302.15,306.39,71.18,72.14,142.56,144.07,69.06,69.84,138,139.82a53.37,53.37,0,0,1,5.61,7.3c.52.76.93,2.24.54,2.86-1,1.6-2.34,4-3.76,4.15a177.59,177.59,0,0,1-18.6.85q-124.76.06-249.49,0Z"/><path class="cls-1" d="M3026.8,2095.56q210.38,0,420.74,0c25.75,0,25.48,2.68,46.27-19q72.27-75.33,144.52-150.66c20.12-21,40.09-42.14,60.26-63.08a196.4,196.4,0,0,1,16-14.68c1.16-1,3.83-.35,5.74-.08a2.83,2.83,0,0,1,1.77,2c.51,6.17,1.15,12.35,1.15,18.53q.08,144.9,0,289.79c0,5.2-.21,10.4.05,15.58.4,8.19-2.66,17.53,2.91,24.18,4.43,5.27,11.76,8.14,17.84,12,21.88,13.91,37.05,33.07,44.5,57.93a76.86,76.86,0,0,1,3.4,21.36c.19,45.7.3,91.41-.3,137.1-.49,37-16.92,65.67-48,85.81-7,4.51-14.33,8.4-21.46,12.65a11.45,11.45,0,0,0-5.88,10.22c-.11,22.85-.09,45.7-.14,68.55,0,13.5.22,27-.18,40.51-1.13,38.6-30.59,68.46-69.24,70.47-3.11.16-6.24.14-9.35.15q-124.66,0-249.33,0c-21.61,0-22.75-1.24-23.8-22.63-3.44-69.78-28.29-131.77-71.82-185.5-40.71-50.24-92.32-85.9-155-104.78-48.55-14.61-97.26-18.94-147.52-9.74-29.84,5.45-58.23,14.41-86,25.94-7.75,3.22-14,1.67-19.74-4.13q-29.46-30-59-60-77.72-78.72-155.49-157.39c-27.75-28.07-55.62-56-83.31-84.16a39.49,39.49,0,0,1-6.93-10c-.57-1.13.81-4.45,2.1-5.05a22.2,22.2,0,0,1,8.94-1.89c16.62-.15,33.24,0,49.87,0H3026.8Z"/><path class="cls-2" d="M2919.66,1970.45H2477q-12.46,0-24.94-.16c-5.34-.07-10.2-1.48-14.1-5.43q-36.12-36.61-72.18-73.27c-1.19-1.22-1.19-3.68-1.59-5.59-.47-2.24,2.94-4.65,6.77-4.8,3.11-.12,6.23-.21,9.35-.23,5.19,0,10.39,0,15.58,0q208.88,0,417.74,0c8.3,0,16.6-.22,24.9-.54,4.94-.19,9.34-5,9.53-10.39.22-6.23.28-12.46.28-18.7q0-201,0-402.08c0-6.22-.29-12.44-.58-18.65-.19-4-4.07-8.2-7.68-8.41-6.2-.35-12.42-.77-18.63-.78q-283.68,0-567.37,0c-7.27,0-14.53.33-21.79.67-3.77.18-7.61,4.28-8,8.22-.29,3.09-.64,6.18-.68,9.28-.09,7.27,0,14.54,0,21.82q0,127.79.06,255.59c0,5.18-.32,10.37-.23,15.56,0,2.46-.87,3.75-3,5a6.94,6.94,0,0,1-8.3-1.49c-22.71-22.83-45.33-45.75-68.1-68.53-5.43-5.42-8.5-11.61-8.49-19.33,0-7.27-.1-14.54-.1-21.82q0-90.39,0-180.78a113.83,113.83,0,0,0-1.85-18.39,6.33,6.33,0,0,0-4-4.16,82.75,82.75,0,0,0-15.38-1.59c-45.72-.11-91.44-.06-137.17-.08-21.82,0-43.64-.13-65.46,0a21.91,21.91,0,0,1-16.63-6.92c-23.34-23.68-46.8-47.24-70.12-70.94a8.66,8.66,0,0,1-2.52-5.44c0-1.66,1.67-4.71,2.73-4.76,15.51-.77,31-1.12,46.56-1.59,5.18-.16,10.45.12,15.51-.79a12.53,12.53,0,0,0,7.41-4.85c3.46-5.14,6.06-10.87,9-16.38,22-41.53,57.37-61.16,103.56-62.8,8.3-.3,16.62-.12,24.94-.13h1000.7c6.24,0,12.51.49,18.7,0,39.42-3.39,93.84,24.18,113.58,68.53,1.26,2.85,1.81,6.32,3.8,8.46,2.7,2.9,6.2,6,9.84,6.83,6,1.33,12.36,1.12,18.58,1.13,37.41.07,74.82-.09,112.23.06,15.58.06,31.17.46,46.73,1.11,84.89,3.55,156.14,37.83,216.84,96.1a333.22,333.22,0,0,1,75.73,109.4c11.52,26.64,21.1,53.82,24.75,83.06,2.31,18.53,5.91,36.87,5.65,55.65a19.36,19.36,0,0,1-5.64,14c-13.14,13.31-26.07,26.82-39.2,40.13q-110.56,112-221.2,224c-2.92,3-5.88,5.86-8.8,8.82a19.64,19.64,0,0,1-13.85,6.15c-8.31.23-16.62.23-24.93.24Z"/><path class="cls-3" d="M3041.51,2504.87c98.95-1.91,192.6,63.74,224.28,158,11.72,34.85,16.32,70.78,8.3,107.3-3.11,14.13-2.91,29-9.19,42.41-1,2.09-6.33,4-8.11,2.73s-3.65-1.94-5.15-3.28c-3.09-2.77-6-5.76-8.89-8.71q-130.07-131.94-260.08-263.91c-4.35-4.42-8.48-9.07-12.6-13.72-2.84-3.22-1.62-9.5,2-10.36C2996.22,2509.52,3020.2,2502.31,3041.51,2504.87Z"/><path class="cls-1" d="M1628.57,2705c-15.13-43.08-41-78.8-75.88-108.21-42-35.43-90.07-54.3-145.26-54-22-.45-43.21,2.9-64.54,8.55-71.63,19-135,80.62-157.14,155-4.76,16-8.21,32-9.21,48.71a413.57,413.57,0,0,0,1.73,65.28,78.66,78.66,0,0,0,2.09,12.24c11.39,42.86,30.92,81.16,62.32,113.1,34.62,35.22,77.1,55.27,124.55,66.15,35.24,3,70.18,4.7,104.87-6.08,40.5-12.58,76-32.73,105-63.69,30.57-32.57,49.73-70.95,59.22-114.58C1645.42,2785.73,1642.62,2745,1628.57,2705Zm-178.71,153.48c-12.81,7.82-27.08,10.12-41,9.4-42.81,3-93.05-37.82-88-96.6,3.06-35.39,23.54-59.54,53.91-74.87,14.7-7.41,31.46-9.45,48.64-6.36,33.66,6.06,56.32,25,69,56.24,2.28,5.66,3.29,11.93,4.15,18,.72,5.11.4,10.37.49,15.56C1497.68,2815.84,1479.23,2840.5,1449.86,2858.43Z"/></g></g></svg>